<svg width="331" height="365" viewBox="0 0 331 365" fill="none" xmlns="http://www.w3.org/2000/svg">
<path d="M132.209 189.029V161.93C132.209 150.211 132.551 139.566 133.234 129.996C134.016 120.328 135.676 111.393 138.215 103.189C130.5 102.018 122.59 100.65 114.484 99.0879C106.379 97.4277 98.4199 95.8652 90.6074 94.4004C82.8926 92.9355 75.5195 91.7148 68.4883 90.7383C61.5547 89.6641 55.3047 89.127 49.7383 89.127C42.2188 89.127 35.9688 89.7617 30.9883 91.0312C26.0078 92.2031 22.0039 93.8145 18.9766 95.8652C15.9492 97.916 13.8008 100.309 12.5313 103.043C11.3594 105.68 10.7735 108.512 10.7735 111.539C10.7735 114.566 11.457 117.35 12.8242 119.889C14.2891 122.428 16.3399 124.674 18.9766 126.627C21.6133 128.482 24.7383 129.947 28.3516 131.021C32.0625 132.096 36.1641 132.633 40.6563 132.633C45.6367 132.633 50.0313 132.096 53.8399 131.021C57.7461 129.85 61.0664 128.58 63.8008 127.213C67.0235 125.65 69.8555 123.844 72.2969 121.793L75.2266 128.092C72.1992 130.338 68.8789 132.34 65.2656 134.098C62.1406 135.66 58.4785 137.076 54.2793 138.346C50.1777 139.518 45.6367 140.104 40.6563 140.104C34.1133 140.104 28.3027 139.225 23.2246 137.467C18.2442 135.709 14.0449 133.365 10.627 130.436C7.209 127.408 4.62111 123.893 2.8633 119.889C1.10548 115.885 0.226578 111.637 0.226578 107.145C0.226578 102.359 1.05666 97.7207 2.71681 93.2285C4.27931 88.7363 6.96486 84.7324 10.7735 81.2168C14.4844 77.7012 19.416 74.918 25.5684 72.8672C31.7207 70.7187 39.2891 69.6445 48.2735 69.6445C56.5742 69.6445 64.875 70.3281 73.1758 71.6953C81.5742 72.9648 89.8262 74.5762 97.9317 76.5293C106.135 78.3848 114.094 80.4355 121.809 82.6816C129.621 84.8301 137.092 86.7832 144.221 88.541C148.42 80.8262 153.645 74.6738 159.895 70.084C166.145 65.3965 172.932 63.0527 180.256 63.0527C183.381 63.0527 186.164 63.5898 188.605 64.6641C191.047 65.6406 193.098 66.959 194.758 68.6191C196.418 70.2793 197.639 72.2324 198.42 74.4785C199.299 76.627 199.738 78.9219 199.738 81.3633C199.738 85.4648 198.762 89.0293 196.809 92.0566C194.953 94.9863 192.365 97.4766 189.045 99.5273C185.725 101.48 181.818 102.945 177.326 103.922C172.834 104.801 168 105.24 162.824 105.24C161.652 105.24 160.432 105.24 159.162 105.24C157.99 105.24 156.818 105.143 155.646 104.947C154.865 109.83 154.23 115.299 153.742 121.354C153.352 127.311 153.156 134.049 153.156 141.568V189.029H172.785L169.709 197.965H153.156V234C153.156 242.203 153.059 249.381 152.863 255.533C152.668 261.588 152.131 267.008 151.252 271.793C150.373 276.48 149.055 280.729 147.297 284.537C145.539 288.248 143.098 291.91 139.973 295.523C134.602 301.676 127.131 306.705 117.561 310.611C107.99 314.518 96.3692 316.471 82.6973 316.471C74.2988 316.471 66.291 315.299 58.6738 312.955C51.0567 310.611 44.3672 307.34 38.6055 303.141C32.8438 298.941 28.2539 293.912 24.836 288.053C21.418 282.193 19.709 275.699 19.709 268.57C19.709 263.297 20.5391 258.561 22.1992 254.361C23.957 250.162 26.2031 246.451 28.9375 243.229C31.6719 239.908 34.6504 237.076 37.8731 234.732C41.1934 232.389 44.416 230.436 47.541 228.873C50.666 227.311 53.4981 226.09 56.0371 225.211C58.5762 224.332 60.4805 223.746 61.75 223.453L64.6797 229.459C62.4336 230.631 59.8945 232.242 57.0625 234.293C54.3281 236.246 51.7402 238.785 49.2988 241.91C46.8574 244.938 44.8067 248.648 43.1465 253.043C41.4863 257.438 40.6563 262.613 40.6563 268.57C40.6563 274.918 41.7305 280.631 43.8789 285.709C46.0274 290.689 49.0059 294.938 52.8145 298.453C56.7207 301.871 61.3106 304.508 66.584 306.363C71.9551 308.121 77.8145 309 84.1621 309C91.291 309 97.7852 308.023 103.645 306.07C109.602 304.117 114.68 300.846 118.879 296.256C123.078 291.666 126.35 285.562 128.693 277.945C131.037 270.328 132.209 260.855 132.209 249.527V197.965H103.791L106.721 189.029H132.209ZM180.256 71.1094C175.861 71.1094 171.809 72.7207 168.098 75.9434C164.387 79.0684 161.311 84.4395 158.869 92.0566C161.896 92.5449 164.826 92.9355 167.658 93.2285C170.49 93.5215 173.176 93.668 175.715 93.668C178.352 93.668 180.598 93.3262 182.453 92.6426C184.406 91.8613 185.969 90.8848 187.141 89.7129C188.313 88.541 189.191 87.2227 189.777 85.7578C190.363 84.293 190.656 82.8281 190.656 81.3633C190.656 78.5313 189.68 76.1387 187.727 74.1855C185.773 72.1348 183.283 71.1094 180.256 71.1094Z" fill="#6D6750"/>
<path d="M300.055 123.638C304.523 123.638 308.332 124.81 311.481 127.154C314.63 129.424 317.23 132.72 319.281 137.041C321.332 141.29 322.833 146.49 323.786 152.642C324.738 158.721 325.214 165.533 325.214 173.077C325.214 180.108 324.811 187.469 324.005 195.159C323.2 202.85 321.991 210.65 320.38 218.56C318.842 226.397 316.901 234.161 314.557 241.851C312.287 249.542 309.687 256.866 306.757 263.824C303.827 270.782 300.568 277.264 296.979 283.27C293.39 289.202 289.508 294.366 285.333 298.76C281.159 303.082 276.691 306.451 271.93 308.868C267.243 311.358 262.299 312.603 257.099 312.603C251.605 312.603 246.845 311.614 242.816 309.637C238.861 307.732 235.492 305.132 232.709 301.836C229.999 298.467 227.802 294.622 226.117 290.301C224.433 285.906 223.114 281.292 222.162 276.458C221.283 271.624 220.697 266.717 220.404 261.736C220.111 256.683 219.965 251.885 219.965 247.344C219.965 238.628 220.331 230.169 221.063 221.966C221.796 213.689 222.602 205.706 223.48 198.016C224.433 190.325 225.275 182.964 226.007 175.933C226.74 168.902 227.106 162.2 227.106 155.828C227.106 150.481 226.813 146.05 226.227 142.535C225.641 138.946 224.726 136.089 223.48 133.965C222.309 131.841 220.807 130.34 218.976 129.461C217.145 128.582 214.984 128.143 212.494 128.143C209.271 128.143 206.085 128.875 202.936 130.34C199.787 131.805 196.747 133.855 193.817 136.492C190.961 139.056 188.324 142.132 185.907 145.721C183.49 149.236 181.403 153.082 179.645 157.256C177.814 161.431 176.386 165.826 175.36 170.44C174.335 174.981 173.822 179.559 173.822 184.173C173.822 188.934 174.152 192.925 174.811 196.148C175.47 199.371 176.386 201.971 177.558 203.948C178.656 205.926 180.011 207.354 181.623 208.233C183.307 209.112 185.138 209.551 187.116 209.551C190.558 209.551 193.671 208.636 196.454 206.805C199.237 204.9 201.654 202.264 203.705 198.895C205.756 195.452 207.44 191.351 208.759 186.59C210.077 181.756 211.029 176.446 211.615 170.66L216.779 170.879C216.559 173.37 216.156 176.226 215.57 179.449C215.058 182.598 214.289 185.821 213.263 189.117C212.238 192.339 210.956 195.525 209.418 198.675C207.88 201.824 205.976 204.607 203.705 207.024C201.435 209.441 198.798 211.419 195.795 212.957C192.792 214.422 189.313 215.154 185.358 215.154C182.501 215.154 179.535 214.605 176.459 213.506C173.383 212.408 170.563 210.687 168 208.343C165.436 205.999 163.349 202.959 161.737 199.224C160.053 195.416 159.21 190.838 159.21 185.491C159.21 180.218 159.979 175.018 161.518 169.891C162.982 164.764 165.033 159.856 167.67 155.169C170.233 150.481 173.31 146.16 176.898 142.205C180.414 138.25 184.259 134.808 188.434 131.878C192.609 128.948 197.003 126.678 201.618 125.066C206.232 123.382 210.846 122.54 215.46 122.54C235.089 122.54 244.904 136.785 244.904 165.276C244.904 172.234 244.574 179.632 243.915 187.469C243.329 195.306 242.67 203.326 241.937 211.529C241.278 219.659 240.619 227.825 239.96 236.028C239.374 244.158 239.081 251.995 239.081 259.539C239.081 269.354 239.521 277.3 240.399 283.379C241.278 289.458 242.56 294.183 244.245 297.552C245.929 300.848 247.98 303.082 250.397 304.253C252.814 305.352 255.561 305.901 258.637 305.901C263.251 305.901 267.792 304.217 272.26 300.848C276.728 297.405 280.976 292.791 285.004 287.005C289.032 281.146 292.731 274.334 296.1 266.57C299.542 258.733 302.509 250.42 304.999 241.631C307.489 232.769 309.43 223.65 310.822 214.275C312.213 204.827 312.909 195.599 312.909 186.59C312.909 176.409 312.36 167.95 311.261 161.211C310.163 154.4 308.661 148.98 306.757 144.952C304.853 140.85 302.655 137.957 300.165 136.272C297.675 134.588 295.001 133.746 292.145 133.746C290.167 133.746 288.263 134.112 286.432 134.844C284.674 135.503 283.026 136.346 281.488 137.371C279.95 138.396 278.559 139.495 277.313 140.667C276.068 141.839 275.043 142.901 274.237 143.853L269.733 140.447C270.758 139.129 272.26 137.518 274.237 135.613C276.288 133.709 278.632 131.878 281.269 130.12C283.979 128.362 286.908 126.861 290.058 125.616C293.28 124.297 296.613 123.638 300.055 123.638Z" fill="#6D6750"/>
</svg>
